<?xml version="1.0" standalone="no"?>
<!DOCTYPE svg PUBLIC "-//W3C//DTD SVG 20010904//EN"
 "http://www.w3.org/TR/2001/REC-SVG-20010904/DTD/svg10.dtd">
<svg version="1.0" xmlns="http://www.w3.org/2000/svg"
 width="260.000000pt" height="260.000000pt" viewBox="0 0 260.000000 260.000000"
 preserveAspectRatio="xMidYMid meet">
<metadata>
Created by potrace 1.11, written by Peter Selinger 2001-2013
</metadata>
<g transform="translate(0.000000,260.000000) scale(0.100000,-0.100000)"
fill="#000000" stroke="none">
<path d="M1165 2593 c-489 -57 -917 -391 -1079 -843 -152 -421 -88 -864 177
-1230 58 -80 211 -227 300 -288 147 -101 312 -172 490 -209 114 -24 390 -23
507 1 260 54 476 172 666 363 185 185 308 418 358 679 23 118 16 410 -12 525
-111 456 -455 822 -893 952 -76 23 -107 30 -189 44 -34 5 -287 10 -325 6z"/>
</g>
</svg>
